<?xml version="1.0" encoding="UTF-8"?>
<svg version="1.1" xmlns="http://www.w3.org/2000/svg" width="200" height="200">
<path d="M0 0 C2.77880859 1.36010742 2.77880859 1.36010742 5.6484375 3.10546875 C7.26214233 4.07577026 7.26214233 4.07577026 8.90844727 5.06567383 C10.06400579 5.77288232 11.21952234 6.4801594 12.375 7.1875 C13.57869162 7.91473932 14.78304751 8.64088018 15.98803711 9.3659668 C17.83872696 10.4796632 19.68902514 11.5939468 21.53727722 12.71168518 C28.38992175 16.85376198 35.31897449 20.86271295 42.25341797 24.8659668 C44.03439663 25.89945205 45.80367743 26.95338461 47.56008911 28.02809143 C50.1822873 29.53125103 52.72699562 30.81588839 55.46118164 32.07647705 C67.46440791 37.95839733 67.46440791 37.95839733 70.02367973 43.02763939 C71.57831453 48.70143618 71.19627699 54.48846031 70.93359375 60.30859375 C70.91267077 62.16652343 70.89904657 64.0245482 70.89234924 65.88258362 C70.86036906 69.75795574 70.7704282 73.62574788 70.63256836 77.4987793 C70.45640354 82.46155583 70.38120185 87.41911538 70.34327602 92.38468838 C70.30307235 97.1308505 70.21440731 101.87572678 70.12109375 106.62109375 C70.10714506 107.52389006 70.09319637 108.42668636 70.078825 109.35684013 C70.03032019 111.90936652 69.94754317 114.45832498 69.85327148 117.00952148 C69.84296906 117.76332092 69.83266663 118.51712036 69.822052 119.29376221 C69.64584197 123.02514666 69.31818316 124.67613288 66.66127014 127.38050842 C63.36638924 129.38557802 60.00253305 131.19905834 56.5625 132.9375 C46.81502547 137.98341458 37.43141254 143.59264639 28.00878906 149.21484375 C21.59131815 153.02241818 15.13254866 156.7598383 8.67944336 160.5065918 C7.23903687 161.34444214 7.23903687 161.34444214 5.76953125 162.19921875 C4.91979736 162.69252686 4.07006348 163.18583496 3.19458008 163.6940918 C1.43079307 164.74365201 -0.2922644 165.8615096 -2 167 C-6.07665761 166.67294995 -9.0193475 165.05602532 -12.5078125 163.0078125 C-13.56726074 162.39075439 -14.62670898 161.77369629 -15.71826172 161.13793945 C-16.84248535 160.47366943 -17.96670898 159.80939941 -19.125 159.125 C-20.30054466 158.43706127 -21.47649283 157.74981164 -22.65283203 157.06323242 C-25.00939523 155.68681924 -27.36388802 154.30696654 -29.71679688 152.92431641 C-33.33406135 150.80420348 -36.96539157 148.70975452 -40.60058594 146.62060547 C-50.44119989 140.96087924 -60.17966872 135.13436374 -69.89794922 129.26757812 C-72.02278698 127.91651436 -72.02278698 127.91651436 -74.5869751 126.91804504 C-77 125 -77 125 -77.66183472 121.49064636 C-77.70378326 120.00883637 -77.71788192 118.52608618 -77.71044922 117.04370117 C-77.72563599 116.23360092 -77.74082275 115.42350067 -77.75646973 114.58885193 C-77.79892191 111.90647023 -77.80376651 109.22566563 -77.8046875 106.54296875 C-77.8182131 104.67832281 -77.83264001 102.8136832 -77.84793091 100.9490509 C-77.87337407 97.03740467 -77.87861888 93.12631602 -77.87158203 89.21459961 C-77.86548912 84.20653396 -77.92331093 79.20149435 -77.99824333 74.19407177 C-78.04639188 70.34113904 -78.05329062 66.4889342 -78.0485878 62.63573647 C-78.05263695 60.79011569 -78.07111707 58.94446723 -78.10439682 57.09914207 C-78.33792237 42.66977479 -78.33792237 42.66977479 -75.06776428 38.58850098 C-72.74716624 37.01403629 -70.61261378 35.99563301 -68 35 C-66.63635458 34.21284968 -65.28361367 33.40609037 -63.94921875 32.5703125 C-62.53048218 31.75201625 -61.1098103 30.93706873 -59.6875 30.125 C-58.89698242 29.67012207 -58.10646484 29.21524414 -57.29199219 28.74658203 C-52.82291983 26.17843189 -48.34503321 23.62575413 -43.86698914 21.07328796 C-42.66214156 20.38647083 -41.45739988 19.69946791 -40.25276184 19.01228333 C-37.20228082 17.27218272 -34.15050323 15.53445228 -31.09594727 13.80151367 C-26.0413296 10.92804616 -21.00312041 8.04627994 -16.0859375 4.94140625 C-15.39790039 4.50908691 -14.70986328 4.07676758 -14.00097656 3.63134766 C-12.28494387 2.53928625 -10.58308347 1.42503674 -8.8828125 0.30859375 C-5.28941921 -1.32255361 -3.79638579 -0.92835596 0 0 Z " fill="#3A6080" transform="translate(104,17)"/>
<path d="M0 0 C3.81951464 1.43308259 7.29694436 3.18927761 10.8515625 5.1875 C11.94984375 5.80367188 13.048125 6.41984375 14.1796875 7.0546875 C15.31664063 7.69664063 16.45359375 8.33859375 17.625 9 C18.7696875 9.64195313 19.914375 10.28390625 21.09375 10.9453125 C29.55680216 15.70453477 29.55680216 15.70453477 33 18 C33.26667539 20.83727325 33.34791234 23.45383045 33.29296875 26.2890625 C33.28872391 27.10748627 33.28447906 27.92591003 33.28010559 28.76913452 C33.26328679 31.38808836 33.22562974 34.00627802 33.1875 36.625 C33.17245726 38.3984264 33.15876814 40.17186484 33.14648438 41.9453125 C33.11337292 46.2971703 33.06156952 50.64845551 33 55 C29.06726871 53.78262403 25.59647954 52.37450303 22.03125 50.3203125 C21.13019531 49.80339844 20.22914062 49.28648437 19.30078125 48.75390625 C18.37652344 48.21636719 17.45226562 47.67882812 16.5 47.125 C15.57574219 46.59519531 14.65148437 46.06539062 13.69921875 45.51953125 C11.11952647 44.03224085 8.54635599 42.54374068 6 41 C4.91960449 40.45424316 3.83920898 39.90848633 2.72607422 39.34619141 C0 37 0 37 -0.68115234 33.14941406 C-0.68020681 31.60449195 -0.64655219 30.05935784 -0.5859375 28.515625 C-0.57744781 27.70003113 -0.56895813 26.88443726 -0.56021118 26.04412842 C-0.52668119 23.44472902 -0.45141109 20.84845779 -0.375 18.25 C-0.34489949 16.48572196 -0.31752382 14.72139518 -0.29296875 12.95703125 C-0.22689224 8.63681959 -0.1233802 4.31893967 0 0 Z " fill="#F4F9F9" transform="translate(65,84)"/>
<path d="M0 0 C3.97470852 31.6435718 3.97470852 31.6435718 -2.35693359 40.17626953 C-8.213613 45.08878469 -14.88975582 48.22076421 -22.02392578 50.86962891 C-25.09414063 51.97659111 -25.09414063 51.97659111 -28.25341797 53.64208984 C-31 55 -31 55 -33 55 C-33 42.79 -33 30.58 -33 18 C-22 11.8125 -22 11.8125 -18.58203125 9.89379883 C-14.11690887 7.37586971 -9.69167241 4.84044079 -5.375 2.07421875 C-2 0 -2 0 0 0 Z " fill="#F8FBFA" transform="translate(135,84)"/>
<path d="M0 0 C0.86625 0.515625 1.7325 1.03125 2.625 1.5625 C3.96805041 2.31348683 5.31337603 3.06041022 6.66015625 3.8046875 C11.6850927 6.59243221 16.69557068 9.40355465 21.6875 12.25 C22.55310547 12.73533203 23.41871094 13.22066406 24.31054688 13.72070312 C25.12716797 14.18798828 25.94378906 14.65527344 26.78515625 15.13671875 C27.52386963 15.55526123 28.26258301 15.97380371 29.02368164 16.4050293 C29.5521167 16.78699463 30.08055176 17.16895996 30.625 17.5625 C30.625 18.2225 30.625 18.8825 30.625 19.5625 C29.76455078 20.02076172 29.76455078 20.02076172 28.88671875 20.48828125 C24.14499073 23.04262639 19.47179542 25.63798387 14.875 28.4453125 C14.04137939 28.94764404 13.20775879 29.44997559 12.34887695 29.9675293 C10.67506319 30.97884213 9.00925157 32.00353482 7.35229492 33.04223633 C1.535451 36.53114518 1.535451 36.53114518 -2.4375 36.66796875 C-6.42911869 35.16580374 -9.93603833 33.16760066 -13.5625 30.9375 C-14.67709595 30.26678467 -14.67709595 30.26678467 -15.81420898 29.58251953 C-21.72915636 26.00705194 -27.58593603 22.33852013 -33.375 18.5625 C-28.94220695 14.72677703 -24.07322278 11.94465598 -19 9.0625 C-18.175 8.58941406 -17.35 8.11632812 -16.5 7.62890625 C-14.88345979 6.70260305 -13.26486249 5.77987882 -11.64404297 4.86108398 C-10.18634525 4.02683671 -8.7365852 3.17847587 -7.29736328 2.31274414 C-2.62150684 -0.48290916 -2.62150684 -0.48290916 0 0 Z " fill="#F6FAFA" transform="translate(101.375,61.4375)"/>
<path d="M0 0 C0.495 0.99 0.495 0.99 1 2 C-0.65 2.33 -2.3 2.66 -4 3 C-4 3.66 -4 4.32 -4 5 C-5.03125 5.2475 -6.0625 5.495 -7.125 5.75 C-11.26895816 6.92075241 -14.92588062 8.92588062 -18 12 C-19.66617115 12.04063832 -21.33388095 12.042721 -23 12 C-23 12.66 -23 13.32 -23 14 C-23.55429688 14.26554687 -24.10859375 14.53109375 -24.6796875 14.8046875 C-25.40414062 15.15789063 -26.12859375 15.51109375 -26.875 15.875 C-27.59429687 16.22304688 -28.31359375 16.57109375 -29.0546875 16.9296875 C-31.15135019 17.96557543 -31.15135019 17.96557543 -33 20 C-33 20.99 -33 21.98 -33 23 C-33.60328125 23.12117188 -34.2065625 23.24234375 -34.828125 23.3671875 C-35.62734375 23.53476562 -36.4265625 23.70234375 -37.25 23.875 C-38.43335938 24.11863281 -38.43335938 24.11863281 -39.640625 24.3671875 C-42.80641253 25.21628945 -45.23411126 26.23411126 -47.5625 28.5625 C-49 30 -49 30 -52 31 C-52.77214844 31.33257812 -53.54429688 31.66515625 -54.33984375 32.0078125 C-55.19707031 32.37648437 -56.05429687 32.74515625 -56.9375 33.125 C-57.79214844 33.49882813 -58.64679687 33.87265625 -59.52734375 34.2578125 C-62.19355503 35.05809709 -63.42490814 34.94400119 -66 34 C-57.62436097 28.88567174 -49.18686277 23.93942389 -40.56591797 19.24926758 C-35.65202373 16.54885321 -30.84113138 13.70561912 -26.0625 10.7734375 C-24.84290855 10.03045851 -23.62318146 9.28770212 -22.40332031 8.54516602 C-20.58341096 7.43704626 -18.76800403 6.32379942 -16.96325684 5.19113159 C-15.27120152 4.12947934 -13.56547453 3.08971391 -11.859375 2.05078125 C-10.87420898 1.43887939 -9.88904297 0.82697754 -8.87402344 0.1965332 C-5.41235026 -1.24465438 -3.55711508 -1.07608851 0 0 Z " fill="#6C8899" transform="translate(104,17)"/>
<path d="M0 0 C0.99 0.33 1.98 0.66 3 1 C3 1.99 3 2.98 3 4 C7.3164922 4.76173392 10.74433453 5.16063604 15 4 C14.67 5.65 14.34 7.3 14 9 C14.99 9 15.98 9 17 9 C17.056332 11.81659997 17.03760698 13.43726719 16 16 C14.31640625 17.46679688 14.31640625 17.46679688 12.125 18.84375 C11.31232666 19.35695801 10.49965332 19.87016602 9.66235352 20.39892578 C5.12556886 23.127237 0.54919844 25.77550401 -4.0625 28.375 C-5.02349609 28.92027344 -5.98449219 29.46554688 -6.97460938 30.02734375 C-9.31472393 31.3545729 -11.65651915 32.67872684 -14 34 C-14.66 32.68 -15.32 31.36 -16 30 C-8.17136549 23.21518343 3.74046438 15.02804774 14 13 C14 12.34 14 11.68 14 11 C13.30519531 10.74476562 12.61039063 10.48953125 11.89453125 10.2265625 C8.64682551 8.85034172 5.72017084 7.17460687 2.6875 5.375 C1.61886719 4.74335937 0.55023438 4.11171875 -0.55078125 3.4609375 C-1.35902344 2.97882813 -2.16726562 2.49671875 -3 2 C-2.01 1.34 -1.02 0.68 0 0 Z " fill="#486173" transform="translate(118,68)"/>
<path d="M0 0 C4.81901698 1.69522732 9.01499013 4.26051855 13.375 6.875 C22.70264272 13.16219405 22.70264272 13.16219405 33 17 C33 17.99 33 18.98 33 20 C29.54157252 20.88268422 27.58683151 21.23449496 24.22680664 19.8918457 C23.29731201 19.32554443 22.36781738 18.75924316 21.41015625 18.17578125 C20.37826172 17.55896484 19.34636719 16.94214844 18.28320312 16.30664062 C17.22037109 15.64857422 16.15753906 14.99050781 15.0625 14.3125 C14.00353516 13.67376953 12.94457031 13.03503906 11.85351562 12.37695312 C9.80898779 11.14360414 7.76795894 9.90443094 5.73095703 8.65869141 C2.52060736 6.70883304 -0.72563389 4.83979319 -4 3 C-2.68 2.67 -1.36 2.34 0 2 C0 1.34 0 0.68 0 0 Z " fill="#486274" transform="translate(69,81)"/>
<path d="M0 0 C1.18630923 4.18560708 1.02669337 8.17303192 0.87890625 12.484375 C0.85529526 13.29996887 0.83168427 14.11556274 0.80735779 14.95587158 C0.73094567 17.5541014 0.64682516 20.15201614 0.5625 22.75 C0.50925681 24.51430764 0.45651657 26.27863053 0.40429688 28.04296875 C0.27536101 32.36217769 0.1395126 36.68112028 0 41 C-1.32 41 -2.64 41 -4 41 C-4 28.46 -4 15.92 -4 3 C-2.68 3 -1.36 3 0 3 C0 2.01 0 1.02 0 0 Z " fill="#3E586E" transform="translate(102,98)"/>
<path d="M0 0 C-0.47566406 0.25652344 -0.95132813 0.51304687 -1.44140625 0.77734375 C-5.29841301 2.88697728 -9.11007165 5.0530633 -12.8671875 7.3359375 C-13.53806396 7.74336182 -14.20894043 8.15078613 -14.90014648 8.57055664 C-16.25097845 9.39400567 -17.59948574 10.22128122 -18.94555664 11.05249023 C-23.78161675 14 -23.78161675 14 -26 14 C-25.67 12.68 -25.34 11.36 -25 10 C-23.68 9.67 -22.36 9.34 -21 9 C-20.67 7.35 -20.34 5.7 -20 4 C-17.69 3.34 -15.38 2.68 -13 2 C-13 2.66 -13 3.32 -13 4 C-11.63875 2.7934375 -11.63875 2.7934375 -10.25 1.5625 C-6.34078063 -1.67525346 -4.52400552 -3.01600368 0 0 Z " fill="#45647B" transform="translate(160,150)"/>
<path d="M0 0 C0.99 0 1.98 0 3 0 C3.04629742 10.63964145 3.081856 21.27925901 3.10362434 31.9189806 C3.11407093 36.85919052 3.1282461 41.79933164 3.15087891 46.73950195 C3.17257607 51.50515611 3.18456203 56.27074398 3.18975449 61.03644371 C3.19345587 62.85655448 3.20068355 64.67666153 3.21146011 66.49674416 C3.22593351 69.04193649 3.22797969 71.58685336 3.22705078 74.13208008 C3.23424133 74.88805481 3.24143188 75.64402954 3.24884033 76.4229126 C3.23399918 80.16965187 3.13382972 81.79925542 1 85 C0.505 82.03 0.505 82.03 0 79 C0.66 79 1.32 79 2 79 C2 55.24 2 31.48 2 7 C1.34 7 0.68 7 0 7 C-1.04449911 3.86650268 -0.93423645 3.01031744 0 0 Z " fill="#415C71" transform="translate(169,57)"/>
<path d="M0 0 C1.32 0.33 2.64 0.66 4 1 C3.67 2.32 3.34 3.64 3 5 C2.34 4.67 1.68 4.34 1 4 C1.0169693 4.93294388 1.0339386 5.86588776 1.05142212 6.82710266 C1.20987018 15.611548 1.35759551 24.39611664 1.49477577 33.1809206 C1.56565052 37.69746855 1.6403255 42.21388751 1.72363281 46.73022461 C1.80386306 51.08727795 1.87417951 55.44438805 1.93757248 59.80171776 C1.96353177 61.46557719 1.99308636 63.12938447 2.02626419 64.79311562 C2.07206252 67.12026158 2.10516919 69.44726354 2.13525391 71.7746582 C2.16006584 72.81043755 2.16006584 72.81043755 2.18537903 73.86714172 C2.21781824 77.50448567 2.08305665 78.87541502 0 82 C0 54.94 0 27.88 0 0 Z " fill="#3D596D" transform="translate(28,58)"/>
<path d="M0 0 C0.99 0.33 1.98 0.66 3 1 C3.02913072 5.37498593 3.04684286 9.74994674 3.0625 14.125 C3.07087891 15.3625 3.07925781 16.6 3.08789062 17.875 C3.09111328 19.07382813 3.09433594 20.27265625 3.09765625 21.5078125 C3.10289307 22.60754395 3.10812988 23.70727539 3.11352539 24.84033203 C3.0008558 27.97618105 2.58626376 30.92059383 2 34 C2.66 34 3.32 34 4 34 C4 34.66 4 35.32 4 36 C2.02 36.495 2.02 36.495 0 37 C0 24.79 0 12.58 0 0 Z " fill="#D3E5ED" transform="translate(102,102)"/>
<path d="M0 0 C4.11336093 1.45177445 7.50833145 3.38124858 11 6 C11.33 6.99 11.66 7.98 12 9 C12.66 9 13.32 9 14 9 C13.67 10.32 13.34 11.64 13 13 C7.39 9.7 1.78 6.4 -4 3 C-2.68 2.67 -1.36 2.34 0 2 C0 1.34 0 0.68 0 0 Z " fill="#516474" transform="translate(69,81)"/>
<path d="M0 0 C3 1 3 1 5 3 C5.33 2.01 5.66 1.02 6 0 C6.33 0.33 6.66 0.66 7 1 C8.91424457 0.8981629 8.91424457 0.8981629 11.0625 0.5625 C13.0115625 0.2840625 13.0115625 0.2840625 15 0 C11.19752197 3.226345 7.44929561 5.77535219 3 8 C2.01 7.67 1.02 7.34 0 7 C-0.38133299 5.0085944 -0.71325582 3.00720923 -1 1 C-0.67 0.67 -0.34 0.34 0 0 Z " fill="#587888" transform="translate(65,72)"/>
<path d="M0 0 C2.31 0 4.62 0 7 0 C7 0.66 7 1.32 7 2 C4.89983377 3.17441535 2.79541245 4.33964012 0.6875 5.5 C0.09259766 5.83386719 -0.50230469 6.16773437 -1.11523438 6.51171875 C-3.95828844 8.06825114 -5.70660988 9 -9 9 C-9 7.02 -9 5.04 -9 3 C-7.68 2.67 -6.36 2.34 -5 2 C-5 2.66 -5 3.32 -5 4 C-3.01508358 3.73323796 -3.01508358 3.73323796 -1 3 C-0.67 2.01 -0.34 1.02 0 0 Z " fill="#4E6F85" transform="translate(89,62)"/>
<path d="M0 0 C1.32 0 2.64 0 4 0 C4 0.66 4 1.32 4 2 C4.7425 1.649375 5.485 1.29875 6.25 0.9375 C9 0 9 0 13 1 C8.38 3.64 3.76 6.28 -1 9 C-1 8.01 -1 7.02 -1 6 C-1.0309375 4.700625 -1.0309375 4.700625 -1.0625 3.375 C-1 1 -1 1 0 0 Z " fill="#ECF6F9" transform="translate(121,121)"/>
<path d="M0 0 C2.75 0.9375 2.75 0.9375 3.75 2.9375 C2.1 3.2675 0.45 3.5975 -1.25 3.9375 C-1.25 4.5975 -1.25 5.2575 -1.25 5.9375 C-3.56 6.5975 -5.87 7.2575 -8.25 7.9375 C-8.25 4.9375 -8.25 4.9375 -6.125 2.1875 C-3.25 -0.0625 -3.25 -0.0625 0 0 Z " fill="#4C6D83" transform="translate(101.25,16.0625)"/>
<path d="M0 0 C0 0.66 0 1.32 0 2 C0.66 2.33 1.32 2.66 2 3 C2 3.66 2 4.32 2 5 C3.45833358 6.62514468 3.45833358 6.62514468 5 8 C4.34 8.66 3.68 9.32 3 10 C-0.3 8.02 -3.6 6.04 -7 4 C-2.25 0 -2.25 0 0 0 Z " fill="#EDF7F9" transform="translate(75,76)"/>
<path d="M0 0 C0 3 0 3 -2.125 5.5625 C-5.11418003 8.09680481 -7.2481752 9.0212631 -11 10 C-11.99 10.33 -12.98 10.66 -14 11 C-14 10.01 -14 9.02 -14 8 C-9.38 5.36 -4.76 2.72 0 0 Z " fill="#486178" transform="translate(129,124)"/>
<path d="M0 0 C0.66 0.33 1.32 0.66 2 1 C0.81852128 4.03808813 -0.41871532 5.68004501 -3.28515625 7.2578125 C-10.51982796 10.30511163 -10.51982796 10.30511163 -15 9 C-12.54732365 7.46931512 -10.08866106 5.95031377 -7.625 4.4375 C-6.92632812 3.99986328 -6.22765625 3.56222656 -5.5078125 3.11132812 C-3.70814097 2.01249022 -1.85677657 0.99932133 0 0 Z " fill="#859AA8" transform="translate(53,42)"/>
<path d="M0 0 C3.73487777 0.4979837 5.81237635 0.87491756 9 3 C8.67 4.32 8.34 5.64 8 7 C6.68 7.33 5.36 7.66 4 8 C4 6.68 4 5.36 4 4 C2.02 4 0.04 4 -2 4 C-1.34 2.68 -0.68 1.36 0 0 Z " fill="#486479" transform="translate(132,36)"/>
<path d="M0 0 C4.39683488 1.19913678 7.09840934 2.4288115 10 6 C10 6.66 10 7.32 10 8 C4.50847458 7.38983051 4.50847458 7.38983051 2.125 5.5625 C1 4 1 4 1 2 C0.34 1.67 -0.32 1.34 -1 1 C-0.67 0.67 -0.34 0.34 0 0 Z " fill="#3F5C71" transform="translate(80,88)"/>
<path d="M0 0 C9.59453303 0.59453303 9.59453303 0.59453303 13 4 C12.01 5.485 12.01 5.485 11 7 C7.37 5.02 3.74 3.04 0 1 C0 0.67 0 0.34 0 0 Z " fill="#566F82" transform="translate(47,153)"/>
<path d="M0 0 C3.3 0.33 6.6 0.66 10 1 C10.33 2.32 10.66 3.64 11 5 C12.32 5.33 13.64 5.66 15 6 C14.67 6.99 14.34 7.98 14 9 C7.07 5.04 7.07 5.04 0 1 C0 0.67 0 0.34 0 0 Z " fill="#5C748C" transform="translate(59,160)"/>
<path d="M0 0 C1.65 0 3.3 0 5 0 C5.33 2.31 5.66 4.62 6 7 C5.34 7 4.68 7 4 7 C4 7.66 4 8.32 4 9 C4.99 9.33 5.98 9.66 7 10 C6.01 10.495 6.01 10.495 5 11 C2.875 10.0625 2.875 10.0625 1 9 C1.20625 8.443125 1.4125 7.88625 1.625 7.3125 C2.10695211 4.340462 1.26565028 2.68020059 0 0 Z " fill="#385774" transform="translate(106,56)"/>
<path d="M0 0 C0.99 0.66 1.98 1.32 3 2 C1.54195831 2.81302325 0.08355685 3.62540131 -1.375 4.4375 C-2.59316406 5.11619141 -2.59316406 5.11619141 -3.8359375 5.80859375 C-5.20996622 6.5650536 -6.59709261 7.29854631 -8 8 C-7.9375 5.6875 -7.9375 5.6875 -7 3 C-3.625 1.0625 -3.625 1.0625 0 0 Z " fill="#587084" transform="translate(157,148)"/>
<path d="M0 0 C1.66666667 0.66666667 3.33333333 1.33333333 5 2 C6.36125 2.4640625 6.36125 2.4640625 7.75 2.9375 C8.4925 3.288125 9.235 3.63875 10 4 C10.33 4.99 10.66 5.98 11 7 C6.85323868 7 5.68791935 6.5223055 2.25 4.5 C1.45078125 4.0359375 0.6515625 3.571875 -0.171875 3.09375 C-0.77515625 2.7328125 -1.3784375 2.371875 -2 2 C-1.34 1.34 -0.68 0.68 0 0 Z " fill="#E0EEF3" transform="translate(68,120)"/>
<path d="M0 0 C0.33 0.99 0.66 1.98 1 3 C2.32 2.67 3.64 2.34 5 2 C4.75 5.375 4.75 5.375 4 9 C1.9375 10.4375 1.9375 10.4375 0 11 C-0.66 9.68 -1.32 8.36 -2 7 C-0.68 6.67 0.64 6.34 2 6 C2 5.34 2 4.68 2 4 C0.68 3.34 -0.64 2.68 -2 2 C-1.34 2 -0.68 2 0 2 C0 1.34 0 0.68 0 0 Z " fill="#506A7C" transform="translate(130,75)"/>
<path d="M0 0 C0.7425 0.474375 1.485 0.94875 2.25 1.4375 C4.81940349 3.07541785 4.81940349 3.07541785 7.25 3.5 C7.8275 3.665 8.405 3.83 9 4 C9.33 4.99 9.66 5.98 10 7 C9.01 7.495 9.01 7.495 8 8 C7.34 7.67 6.68 7.34 6 7 C6 6.34 6 5.68 6 5 C5.401875 5.226875 4.80375 5.45375 4.1875 5.6875 C3.465625 5.790625 2.74375 5.89375 2 6 C0.25 4.5625 0.25 4.5625 -1 3 C-0.67 2.01 -0.34 1.02 0 0 Z " fill="#3A5A70" transform="translate(113,25)"/>
<path d="M0 0 C1.75 1.4375 1.75 1.4375 3 3 C0.09399739 4.25664978 -1.79604584 5 -5 5 C-5 4.34 -5 3.68 -5 3 C-6.32 2.67 -7.64 2.34 -9 2 C-8.2575 1.855625 -7.515 1.71125 -6.75 1.5625 C-4.07319309 1.08043649 -4.07319309 1.08043649 -1.875 0.25 C-1.25625 0.1675 -0.6375 0.085 0 0 Z " fill="#3B576E" transform="translate(103,177)"/>
<path d="M0 0 C-2.00993705 2.00993705 -3.59211232 2.89940919 -6.125 4.125 C-6.84945312 4.47820313 -7.57390625 4.83140625 -8.3203125 5.1953125 C-8.87460938 5.46085937 -9.42890625 5.72640625 -10 6 C-10.99 5.34 -11.98 4.68 -13 4 C-8.48649253 0.47726246 -5.71658336 -0.45732667 0 0 Z " fill="#6D8998" transform="translate(79,31)"/>
<path d="M0 0 C0 0.66 0 1.32 0 2 C0.99 2.33 1.98 2.66 3 3 C3.6875 5.0625 3.6875 5.0625 4 7 C0.9168649 5.80100302 -2.06279492 4.52299523 -5 3 C-5 2.34 -5 1.68 -5 1 C-3 0 -3 0 0 0 Z " fill="#577087" transform="translate(81,168)"/>
<path d="M0 0 C0.99 0.33 1.98 0.66 3 1 C3.33 2.98 3.66 4.96 4 7 C2.68 7 1.36 7 0 7 C-0.38133299 5.0085944 -0.71325582 3.00720923 -1 1 C-0.67 0.67 -0.34 0.34 0 0 Z " fill="#466F8B" transform="translate(65,72)"/>
<path d="M0 0 C1.9375 0.8125 1.9375 0.8125 4 2 C4.33 2.99 4.66 3.98 5 5 C5.66 5 6.32 5 7 5 C6.67 6.32 6.34 7.64 6 9 C2.535 7.02 2.535 7.02 -1 5 C-0.34 4.67 0.32 4.34 1 4 C0.67 2.68 0.34 1.36 0 0 Z " fill="#556C7F" transform="translate(76,85)"/>
<path d="M0 0 C2 1 2 1 3 3 C2.01 4.485 2.01 4.485 1 6 C-0.65 5.67 -2.3 5.34 -4 5 C-4 4.01 -4 3.02 -4 2 C-2.125 0.9375 -2.125 0.9375 0 0 Z " fill="#46657C" transform="translate(106,137)"/>
<path d="M0 0 C3.45925163 1.2491742 6.14693203 2.67527795 9 5 C7.35 5.66 5.7 6.32 4 7 C3.67 6.01 3.34 5.02 3 4 C2.01 3.34 1.02 2.68 0 2 C0 1.34 0 0.68 0 0 Z M2 7 C4 8 4 8 4 8 Z " fill="#5C7789" transform="translate(153,47)"/>
<path d="M0 0 C0.66 0.33 1.32 0.66 2 1 C-2.75 5.875 -2.75 5.875 -5 7 C-5.99 6.34 -6.98 5.68 -8 5 C-6.71475739 4.13619741 -5.42157581 3.28419631 -4.125 2.4375 C-3.04605469 1.72400391 -3.04605469 1.72400391 -1.9453125 0.99609375 C-1.30335937 0.66738281 -0.66140625 0.33867188 0 0 Z " fill="#8099A9" transform="translate(36,52)"/>
<path d="M0 0 C1.98 0 3.96 0 6 0 C6.33 1.32 6.66 2.64 7 4 C4.69 4.66 2.38 5.32 0 6 C0.185625 5.38125 0.37125 4.7625 0.5625 4.125 C1.23686176 1.95839822 1.23686176 1.95839822 0 0 Z " fill="#51738C" transform="translate(64,36)"/>
<path d="M0 0 C0 0.99 0 1.98 0 3 C1.65 3.33 3.3 3.66 5 4 C4.67 4.66 4.34 5.32 4 6 C0.00499382 4.6302836 -2.80009492 2.74277578 -6 0 C-3 -1 -3 -1 0 0 Z " fill="#4A6276" transform="translate(121,69)"/>
<path d="M0 0 C0.99 0.33 1.98 0.66 3 1 C3 1.99 3 2.98 3 4 C3.99 4 4.98 4 6 4 C5.67 4.66 5.34 5.32 5 6 C3.68 6 2.36 6 1 6 C1 5.34 1 4.68 1 4 C0.34 4 -0.32 4 -1 4 C-0.67 2.68 -0.34 1.36 0 0 Z " fill="#335977" transform="translate(99,138)"/>
<path d="M0 0 C0.99 0 1.98 0 3 0 C3.33 0.66 3.66 1.32 4 2 C4.99 2.66 5.98 3.32 7 4 C7 4.99 7 5.98 7 7 C5.68 7.33 4.36 7.66 3 8 C2.87625 6.865625 2.7525 5.73125 2.625 4.5625 C2.41875 3.386875 2.2125 2.21125 2 1 C1.34 0.67 0.68 0.34 0 0 Z " fill="#385670" transform="translate(150,47)"/>
<path d="M0 0 C-2.97 1.65 -5.94 3.3 -9 5 C-8.67 3.68 -8.34 2.36 -8 1 C-4.70594381 -0.82039948 -3.63772813 -1.21257604 0 0 Z " fill="#738797" transform="translate(122,172)"/>
<path d="M0 0 C1.32 0 2.64 0 4 0 C4 0.99 4 1.98 4 3 C2.02 3.66 0.04 4.32 -2 5 C-1.125 1.125 -1.125 1.125 0 0 Z " fill="#567285" transform="translate(162,144)"/>
<path d="M0 0 C0 1.65 0 3.3 0 5 C-0.66 5 -1.32 5 -2 5 C-2 4.34 -2 3.68 -2 3 C-3.98 3.66 -5.96 4.32 -8 5 C-7.3125 3.0625 -7.3125 3.0625 -6 1 C-3.92477126 0.39261598 -2.1638224 0 0 0 Z " fill="#355574" transform="translate(125,131)"/>
<path d="M0 0 C1.423125 0.4021875 1.423125 0.4021875 2.875 0.8125 C3.205 1.4725 3.535 2.1325 3.875 2.8125 C2.225 3.1425 0.575 3.4725 -1.125 3.8125 C-1.125 3.1525 -1.125 2.4925 -1.125 1.8125 C-2.775 2.1425 -4.425 2.4725 -6.125 2.8125 C-4.13014789 0.04187207 -3.51239603 -0.21074376 0 0 Z " fill="#8DA2AE" transform="translate(101.125,16.1875)"/>
<path d="M0 0 C0.99 0.33 1.98 0.66 3 1 C3 1.66 3 2.32 3 3 C4.65 2.67 6.3 2.34 8 2 C7.67 3.32 7.34 4.64 7 6 C3.62496331 4.8141763 1.35277269 3.72426311 -1 1 C-0.67 0.67 -0.34 0.34 0 0 Z " fill="#536F81" transform="translate(40,147)"/>
<path d="M0 0 C0.66 0.33 1.32 0.66 2 1 C-0.25 3.5625 -0.25 3.5625 -3 6 C-5.3125 5.8125 -5.3125 5.8125 -7 5 C-2.25 1.125 -2.25 1.125 0 0 Z " fill="#E2EDF3" transform="translate(114,95)"/>
<path d="M0 0 C0.99 0.33 1.98 0.66 3 1 C3 1.66 3 2.32 3 3 C-0.465 4.485 -0.465 4.485 -4 6 C-4.66 5.34 -5.32 4.68 -6 4 C-3.1875 1.9375 -3.1875 1.9375 0 0 Z " fill="#DDEBF2" transform="translate(129,78)"/>
<path d="M0 0 C-2.68841859 2.25245881 -4.64641875 3.88213958 -8 5 C-8.33 4.01 -8.66 3.02 -9 2 C-5.5647952 -0.29013653 -4.014669 -0.17842973 0 0 Z " fill="#E2F0F4" transform="translate(134,121)"/>
<path d="M0 0 C1.125 3.75 1.125 3.75 0 6 C-1.32 6 -2.64 6 -4 6 C-4.33 5.01 -4.66 4.02 -5 3 C-3.35 2.01 -1.7 1.02 0 0 Z " fill="#EBF3F5" transform="translate(123,90)"/>
<path d="M0 0 C0.33 0.66 0.66 1.32 1 2 C0.34 2 -0.32 2 -1 2 C-0.34 3.65 0.32 5.3 1 7 C-0.98 6.01 -2.96 5.02 -5 4 C-3.35 2.68 -1.7 1.36 0 0 Z " fill="#DAEDF5" transform="translate(73,76)"/>
<path d="M0 0 C1.2065625 0.0309375 1.2065625 0.0309375 2.4375 0.0625 C0.9525 2.5375 0.9525 2.5375 -0.5625 5.0625 C-2.5625 4.0625 -2.5625 4.0625 -3.5625 1.0625 C-2.5625 0.0625 -2.5625 0.0625 0 0 Z " fill="#4D6F81" transform="translate(40.5625,51.9375)"/>
<path d="M0 0 C0.33 1.65 0.66 3.3 1 5 C0.01 5 -0.98 5 -2 5 C-2 4.34 -2 3.68 -2 3 C-3.32 3.33 -4.64 3.66 -6 4 C-6 3.34 -6 2.68 -6 2 C-2.25 0 -2.25 0 0 0 Z " fill="#43708D" transform="translate(87,27)"/>
<path d="M0 0 C0.66 0 1.32 0 2 0 C2 0.66 2 1.32 2 2 C2.99 2.33 3.98 2.66 5 3 C4.67 3.99 4.34 4.98 4 6 C3.01 5.67 2.02 5.34 1 5 C0.67 3.35 0.34 1.7 0 0 Z " fill="#365771" transform="translate(83,169)"/>
<path d="M0 0 C1.98 0 3.96 0 6 0 C1.25 4 1.25 4 -1 4 C-0.67 2.68 -0.34 1.36 0 0 Z " fill="#607785" transform="translate(135,160)"/>
<path d="M0 0 C0.99 0 1.98 0 3 0 C3.33 1.65 3.66 3.3 4 5 C2.0625 4.625 2.0625 4.625 0 4 C-0.33 3.34 -0.66 2.68 -1 2 C-0.67 1.34 -0.34 0.68 0 0 Z " fill="#3C5A72" transform="translate(89,136)"/>
<path d="M0 0 C1.98 0.99 3.96 1.98 6 3 C4.02 3.99 4.02 3.99 2 5 C1.01 3.68 0.02 2.36 -1 1 C-0.67 0.67 -0.34 0.34 0 0 Z " fill="#456075" transform="translate(82,131)"/>
<path d="M0 0 C4.75 1.875 4.75 1.875 7 3 C7 3.66 7 4.32 7 5 C4.69 4.34 2.38 3.68 0 3 C0 2.01 0 1.02 0 0 Z " fill="#E5EFF4" transform="translate(120,73)"/>
<path d="M0 0 C-1 3 -1 3 -3.875 4.75 C-7 6 -7 6 -10 5 C-8.71186658 4.16121545 -7.41936744 3.32913217 -6.125 2.5 C-5.40570313 2.0359375 -4.68640625 1.571875 -3.9453125 1.09375 C-2 0 -2 0 0 0 Z " fill="#D9E9EF" transform="translate(85,70)"/>
<path d="M0 0 C2.31 0 4.62 0 7 0 C7 0.66 7 1.32 7 2 C4.625 3.0625 4.625 3.0625 2 4 C1.34 3.67 0.68 3.34 0 3 C0 2.01 0 1.02 0 0 Z " fill="#56788D" transform="translate(89,62)"/>
<path d="M0 0 C1.98 0.66 3.96 1.32 6 2 C5.67 3.32 5.34 4.64 5 6 C4.54625 5.505 4.0925 5.01 3.625 4.5 C2.12364481 2.77390663 2.12364481 2.77390663 0 3 C0 2.01 0 1.02 0 0 Z " fill="#4F738B" transform="translate(94,56)"/>
<path d="" fill="#FFFFFF" transform="translate(0,0)"/>
<path d="" fill="#FFFFFF" transform="translate(0,0)"/>
<path d="" fill="#FFFFFF" transform="translate(0,0)"/>
<path d="" fill="#FFFFFF" transform="translate(0,0)"/>
<path d="" fill="#FFFFFF" transform="translate(0,0)"/>
<path d="" fill="#FFFFFF" transform="translate(0,0)"/>
<path d="" fill="#FFFFFF" transform="translate(0,0)"/>
<path d="" fill="#FFFFFF" transform="translate(0,0)"/>
<path d="" fill="#FFFFFF" transform="translate(0,0)"/>
<path d="" fill="#FFFFFF" transform="translate(0,0)"/>
<path d="" fill="#FFFFFF" transform="translate(0,0)"/>
<path d="" fill="#FFFFFF" transform="translate(0,0)"/>
<path d="" fill="#FFFFFF" transform="translate(0,0)"/>
<path d="" fill="#FFFFFF" transform="translate(0,0)"/>
<path d="" fill="#FFFFFF" transform="translate(0,0)"/>
<path d="" fill="#FFFFFF" transform="translate(0,0)"/>
<path d="" fill="#FFFFFF" transform="translate(0,0)"/>
<path d="" fill="#FFFFFF" transform="translate(0,0)"/>
<path d="" fill="#FFFFFF" transform="translate(0,0)"/>
<path d="" fill="#FFFFFF" transform="translate(0,0)"/>
<path d="" fill="#FFFFFF" transform="translate(0,0)"/>
<path d="" fill="#FFFFFF" transform="translate(0,0)"/>
<path d="" fill="#FFFFFF" transform="translate(0,0)"/>
<path d="" fill="#FFFFFF" transform="translate(0,0)"/>
<path d="" fill="#FFFFFF" transform="translate(0,0)"/>
<path d="" fill="#FFFFFF" transform="translate(0,0)"/>
<path d="" fill="#FFFFFF" transform="translate(0,0)"/>
<path d="" fill="#FFFFFF" transform="translate(0,0)"/>
<path d="" fill="#FFFFFF" transform="translate(0,0)"/>
<path d="" fill="#FFFFFF" transform="translate(0,0)"/>
<path d="" fill="#FFFFFF" transform="translate(0,0)"/>
<path d="" fill="#FFFFFF" transform="translate(0,0)"/>
<path d="" fill="#FFFFFF" transform="translate(0,0)"/>
<path d="" fill="#FFFFFF" transform="translate(0,0)"/>
<path d="" fill="#FFFFFF" transform="translate(0,0)"/>
<path d="" fill="#FFFFFF" transform="translate(0,0)"/>
<path d="" fill="#FFFFFF" transform="translate(0,0)"/>
<path d="" fill="#FFFFFF" transform="translate(0,0)"/>
</svg>
